<svg width="33.453125" height="33.296295" viewBox="0 0 33.4531 33.2963" fill="none" xmlns="http://www.w3.org/2000/svg" xmlns:xlink="http://www.w3.org/1999/xlink">
	<desc>
			Created with Pixso.
	</desc>
	<defs>
		<clipPath id="clip57_2247">
			<rect id="free-icon-kitchen-utensil-4790616 1" rx="0.000000" width="32.453236" height="32.296295" transform="translate(0.500000 0.500000)" fill="white" fill-opacity="0"/>
		</clipPath>
	</defs>
	<rect id="free-icon-kitchen-utensil-4790616 1" rx="0.000000" width="32.453236" height="32.296295" transform="translate(0.500000 0.500000)" fill="#FFFFFF" fill-opacity="0"/>
	<g clip-path="url(#clip57_2247)">
		<path id="Rectangle 9" d="M26.35 7.31L29.14 7.22L29.14 17.08L25.77 17.08L26.35 7.31Z" fill="#FFA132" fill-opacity="1.000000" fill-rule="nonzero"/>
		<ellipse id="Ellipse 2" cx="17.770020" cy="24.311584" rx="3.318774" ry="4.228101" fill="#FFA132" fill-opacity="1.000000"/>
		<path id="Ellipse 3" d="M11.68 10.52C11.68 12.86 10.06 12.46 8.22 12.46C6.39 12.46 5.17 11.84 5.17 11.01C5.17 8.67 6.52 8.36 8.36 8.36C10.19 8.36 11.68 8.19 11.68 10.52Z" fill="#FFA132" fill-opacity="1.000000" fill-rule="nonzero"/>
		<path id="Vector" d="M3.52 2.93C3.36 3.03 3.14 3.22 3.03 3.37L2.84 3.65L2.84 7.14L2.84 10.63L3.01 11.06C3.62 12.63 4.94 13.67 6.53 13.83L6.95 13.88L6.99 21.75L7.02 29.62L7.16 29.85C7.25 29.98 7.44 30.17 7.59 30.27C7.83 30.44 7.91 30.46 8.36 30.46C8.8 30.46 8.89 30.44 9.12 30.29C9.25 30.19 9.44 30 9.53 29.86L9.7 29.62L9.73 21.75L9.76 13.88L10.19 13.83C11.81 13.67 13.24 12.51 13.74 10.95C13.88 10.5 13.88 10.43 13.88 7.08L13.88 3.66L13.7 3.4C13.41 3 13.11 2.83 12.61 2.8C12.08 2.78 11.69 2.95 11.4 3.37L11.2 3.65L11.17 5.28L11.13 6.92L10.45 6.92L9.76 6.92L9.73 5.29C9.7 3.68 9.7 3.66 9.53 3.42C9.26 3.01 8.93 2.83 8.43 2.8C7.89 2.78 7.51 2.95 7.21 3.37L7.02 3.65L6.99 5.28L6.95 6.92L6.27 6.92L5.58 6.92L5.55 5.29L5.52 3.66L5.34 3.4C5.05 3 4.75 2.83 4.25 2.8C3.89 2.78 3.76 2.81 3.52 2.93ZM11.1 9.88C11.1 10.28 10.78 10.71 10.32 10.96C10.11 11.07 9.93 11.08 8.36 11.08C6.71 11.08 6.61 11.08 6.37 10.94C5.92 10.71 5.61 10.27 5.61 9.88L5.61 9.68L8.36 9.68L11.1 9.68L11.1 9.88Z" fill="#FFFFFF" fill-opacity="1.000000" fill-rule="nonzero"/>
		<path id="Vector" d="M17.07 2.93C16.9 3.03 16.69 3.22 16.58 3.37L16.38 3.65L16.35 10.9L16.32 18.15L15.77 18.31C14.39 18.7 13.37 19.52 12.79 20.68C12.29 21.7 12.21 22.12 12.21 23.6C12.21 24.69 12.23 24.95 12.34 25.42C12.98 27.94 14.4 29.66 16.38 30.31C16.77 30.44 16.98 30.46 17.72 30.46C18.47 30.46 18.67 30.44 19.06 30.31C21.04 29.66 22.46 27.94 23.1 25.42C23.22 24.95 23.24 24.69 23.24 23.6C23.24 22.51 23.22 22.26 23.09 21.81C22.6 20.01 21.43 18.82 19.67 18.31L19.13 18.15L19.09 10.91L19.06 3.66L18.88 3.4C18.6 3 18.3 2.83 17.79 2.8C17.43 2.78 17.31 2.81 17.07 2.93ZM19.01 21C19.74 21.25 20.22 21.81 20.4 22.63C20.52 23.2 20.45 24.62 20.27 25.19C19.93 26.26 19.28 27.16 18.58 27.51C18.15 27.73 17.3 27.74 16.87 27.52C16.13 27.13 15.53 26.3 15.16 25.16C15.03 24.73 15.01 24.54 15.01 23.6C15.01 22.55 15.02 22.52 15.2 22.12C15.53 21.42 16.19 20.96 17.07 20.84C17.07 20.84 18.6 20.87 19.01 21Z" fill="#FFFFFF" fill-opacity="1.000000" fill-rule="nonzero"/>
		<path id="Vector" d="M29.66 2.91C28.83 3.34 27.53 4.53 26.74 5.57C24.75 8.21 23.59 11.93 23.33 16.58C23.23 18.28 23.27 18.54 23.73 18.98C24.16 19.42 24.28 19.44 26.76 19.44L28.89 19.44L28.89 24.47L28.89 29.5L29.04 29.77C29.12 29.93 29.32 30.14 29.48 30.26C29.73 30.44 29.8 30.46 30.26 30.46C30.7 30.46 30.79 30.44 31.02 30.29C31.16 30.19 31.35 30 31.44 29.86L31.61 29.62L31.61 16.64L31.61 3.66L31.43 3.4C31.14 2.99 30.84 2.83 30.34 2.8C30.01 2.79 29.85 2.81 29.66 2.91ZM28.89 12.03L28.89 16.64L27.51 16.64L26.13 16.64L26.18 15.97C26.29 14.18 26.73 12.03 27.3 10.43C27.68 9.38 28.7 7.41 28.86 7.41C28.88 7.41 28.89 9.48 28.89 12.03Z" fill="#FFFFFF" fill-opacity="1.000000" fill-rule="nonzero"/>
	</g>
</svg>
