<svg width="304.316406" height="66.592651" viewBox="0 0 304.316 66.5927" fill="none" xmlns="http://www.w3.org/2000/svg" xmlns:xlink="http://www.w3.org/1999/xlink">
	<desc>
			Created with Pixso.
	</desc>
	<defs>
		<clipPath id="clip57_2445">
			<rect id="free-icon-kitchen-utensil-4790616 1" rx="0.000000" width="65.906471" height="65.592590" transform="translate(237.910156 0.500000)" fill="white" fill-opacity="0"/>
		</clipPath>
	</defs>
	<path id="YourMeal" d="M15.2 51.45C13.89 51.45 12.89 51.1 12.2 50.39C11.51 49.69 11.17 48.68 11.17 47.37L11.17 34.96L0.63 20.37Q0.18 19.72 0.05 19Q0 18.71 0 18.4Q0 18.26 0.01 18.1Q0.05 17.55 0.26 17.06Q0.52 16.44 1.04 15.94Q1.11 15.87 1.18 15.81L1.18 15.81Q2.09 15.03 3.68 15.03Q4.6 15.03 5.37 15.36L5.37 15.36Q5.64 15.48 5.9 15.64Q6.93 16.24 7.86 17.55L15.3 28.02L22.74 17.55C23.39 16.64 24.03 16.01 24.65 15.64Q24.78 15.56 24.92 15.49L24.92 15.49Q25.8 15.03 26.92 15.03C28.03 15.03 28.89 15.32 29.51 15.89C30.13 16.43 30.45 17.11 30.49 17.95C30.49 18 30.49 18.04 30.49 18.08C30.49 18.85 30.2 19.64 29.61 20.47L19.17 35.01L19.17 47.37C19.17 50.09 17.85 51.45 15.2 51.45ZM116.64 51.45C115.47 51.45 114.58 51.13 113.96 50.49C113.34 49.85 113.03 48.96 113.03 47.82L113.03 18.66Q113.03 17.21 113.73 16.31Q113.86 16.14 114.01 15.99C114.7 15.35 115.63 15.03 116.8 15.03C117.83 15.03 118.64 15.23 119.23 15.64C119.85 16.01 120.42 16.66 120.93 17.6L131.99 37.29L143.04 17.6C143.56 16.66 144.11 16.01 144.7 15.64Q145.63 15.03 147.12 15.03C148.3 15.03 149.19 15.35 149.81 15.99C150.47 16.63 150.79 17.52 150.79 18.66L150.79 47.82C150.79 48.96 150.48 49.85 149.86 50.49C149.24 51.13 148.35 51.45 147.18 51.45C146 51.45 145.09 51.13 144.44 50.49C143.82 49.85 143.51 48.96 143.51 47.82L143.51 29.41L135.04 44.2C134.62 44.83 134.17 45.32 133.69 45.66C133.25 45.96 132.64 46.11 131.88 46.11C131.13 46.11 130.51 45.94 130.02 45.61Q129.3 45.1 128.73 44.2L120.26 29.52L120.26 47.82C120.26 48.96 119.95 49.85 119.33 50.49C118.75 51.13 117.85 51.45 116.64 51.45ZM223.76 51.55C220.7 51.55 218.41 50.73 216.89 49.08C215.37 47.4 214.62 44.92 214.62 41.63L214.62 18.91C214.62 17.63 214.94 16.68 215.6 16.04Q215.66 15.98 215.73 15.92Q216.75 15.03 218.54 15.03C219.78 15.03 220.73 15.37 221.39 16.04C222.07 16.68 222.42 17.63 222.42 18.91L222.42 41.33C222.42 42.7 222.71 43.73 223.3 44.4C223.92 45.04 224.73 45.36 225.72 45.36C226 45.36 226.26 45.34 226.5 45.3C226.74 45.27 227 45.25 227.27 45.25C227.83 45.19 228.2 45.36 228.41 45.76Q228.77 46.31 228.77 48.02C228.77 49.03 228.57 49.8 228.15 50.34C227.74 50.85 227.1 51.18 226.24 51.35C225.9 51.38 225.5 51.42 225.05 51.45C224.61 51.52 224.17 51.55 223.76 51.55ZM94.99 51.45C93.68 51.45 92.68 51.11 92 50.44C91.31 49.77 90.96 48.81 90.96 47.57L90.96 29.69C90.96 28.45 91.29 27.51 91.94 26.87Q92.08 26.74 92.23 26.62Q93.22 25.86 94.79 25.86C96.03 25.86 96.97 26.2 97.63 26.87C98.28 27.51 98.61 28.45 98.61 29.69L98.61 30.59Q99.12 29.36 99.96 28.43Q100.36 28 100.83 27.62C102.24 26.52 104.07 25.9 106.31 25.76C107.17 25.69 107.82 25.91 108.27 26.42C108.75 26.89 109.01 27.67 109.04 28.78C109.05 28.91 109.06 29.03 109.06 29.14C109.06 30.01 108.83 30.72 108.37 31.25C107.89 31.86 107.06 32.23 105.89 32.36L104.71 32.46C102.74 32.63 101.28 33.18 100.31 34.12C99.38 35.06 98.92 36.42 98.92 38.2L98.92 47.57C98.92 48.81 98.57 49.77 97.89 50.44C97.23 51.11 96.27 51.45 94.99 51.45ZM42.26 51.55C39.54 51.55 37.16 51.03 35.13 49.99C33.13 48.95 31.58 47.45 30.48 45.51C29.38 43.56 28.83 41.26 28.83 38.61Q28.83 35.63 29.76 33.27C30.38 31.69 31.27 30.34 32.45 29.24C33.65 28.09 35.08 27.24 36.73 26.67C38.39 26.06 40.23 25.76 42.26 25.76Q46.34 25.76 49.34 27.32C51.37 28.36 52.94 29.84 54.04 31.75C55.18 33.67 55.75 35.95 55.75 38.61Q55.75 41.63 54.76 44C54.14 45.57 53.25 46.93 52.08 48.08C50.91 49.22 49.48 50.09 47.79 50.69C46.14 51.27 44.29 51.55 42.26 51.55ZM170.68 51.55C167.68 51.55 165.1 51.03 162.93 49.99C160.8 48.91 159.14 47.42 157.97 45.51C156.84 43.56 156.27 41.27 156.27 38.66C156.27 36.1 156.82 33.87 157.92 31.96C159.02 30.01 160.56 28.5 162.52 27.42C164.52 26.31 166.77 25.76 169.29 25.76C171.11 25.76 172.76 26.06 174.25 26.67C175.73 27.24 177 28.08 178.07 29.19C179.14 30.26 179.95 31.59 180.5 33.17C181.05 34.71 181.32 36.44 181.32 38.35C181.32 38.99 181.12 39.48 180.7 39.81C180.29 40.12 179.69 40.27 178.9 40.27L163.67 40.27C163.91 41.89 164.47 43.15 165.36 44.05C166.6 45.25 168.43 45.86 170.84 45.86C171.66 45.86 172.61 45.76 173.68 45.56C174.75 45.36 175.74 45.04 176.67 44.6C177.47 44.23 178.17 44.11 178.79 44.25C179.41 44.35 179.89 44.62 180.24 45.05C180.58 45.49 180.77 45.99 180.81 46.56C180.82 46.67 180.83 46.77 180.83 46.88C180.83 47.34 180.7 47.81 180.45 48.28C180.14 48.81 179.62 49.27 178.9 49.64C177.72 50.27 176.4 50.74 174.92 51.05C173.47 51.38 172.06 51.55 170.68 51.55ZM194.44 51.55Q191.65 51.55 189.43 50.49C187.94 49.79 186.79 48.83 185.96 47.62C185.14 46.41 184.72 45.05 184.72 43.54C184.72 41.73 185.21 40.3 186.17 39.26C187.14 38.19 188.7 37.43 190.87 36.99C193.04 36.52 195.92 36.29 199.5 36.29L201.36 36.29L201.36 35.43C201.36 33.95 201.01 32.91 200.33 32.31C199.64 31.67 198.47 31.35 196.81 31.35C195.88 31.35 194.87 31.47 193.77 31.7C192.7 31.91 191.51 32.26 190.2 32.76C189.44 33.1 188.77 33.18 188.19 33.01C187.6 32.81 187.15 32.48 186.84 32.01C186.53 31.5 186.38 30.97 186.38 30.39C186.38 29.79 186.55 29.22 186.89 28.68C187.24 28.11 187.81 27.69 188.6 27.42C190.22 26.79 191.73 26.35 193.14 26.11C194.59 25.88 195.92 25.76 197.12 25.76C199.77 25.76 201.94 26.15 203.63 26.92C205.35 27.66 206.65 28.82 207.51 30.39Q208.8 32.71 208.8 36.39L208.8 47.57C208.8 48.81 208.49 49.77 207.87 50.44C207.25 51.11 206.35 51.45 205.18 51.45C204.01 51.45 203.1 51.11 202.44 50.44C201.82 49.77 201.51 48.81 201.51 47.57L201.51 47.3C201.27 47.92 200.95 48.48 200.53 48.98C199.88 49.79 199.03 50.43 198 50.9C196.97 51.33 195.78 51.55 194.44 51.55ZM69.84 51.55C67.71 51.55 65.93 51.16 64.52 50.39C63.11 49.62 62.06 48.46 61.37 46.92Q60.39 44.55 60.39 41.07L60.39 29.69Q60.39 27.82 61.32 26.87Q61.34 26.84 61.37 26.82C62.06 26.18 63.02 25.86 64.26 25.86C65.5 25.86 66.47 26.18 67.16 26.82C67.84 27.46 68.19 28.41 68.19 29.69L68.19 41.27C68.19 42.75 68.5 43.86 69.12 44.6C69.74 45.3 70.72 45.66 72.06 45.66C73.54 45.66 74.75 45.15 75.68 44.15C76.64 43.11 77.13 41.75 77.13 40.07L77.13 29.69Q77.13 27.82 78.06 26.87L78.06 26.86Q78.08 26.84 78.11 26.82C78.8 26.18 79.76 25.86 81 25.86C82.27 25.86 83.24 26.18 83.89 26.82Q83.97 26.89 84.04 26.97L84.05 26.97Q84.93 27.92 84.93 29.69L84.93 47.57C84.93 50.16 83.67 51.45 81.16 51.45C79.92 51.45 78.97 51.11 78.31 50.44C77.67 49.78 77.34 48.83 77.33 47.61C76.67 48.64 75.84 49.48 74.85 50.14C73.44 51.08 71.77 51.55 69.84 51.55ZM163.66 36.34L174.85 36.34C174.79 35.27 174.59 34.37 174.25 33.62C173.83 32.68 173.23 31.97 172.44 31.5C171.68 31.03 170.73 30.8 169.6 30.8C168.32 30.8 167.24 31.08 166.34 31.65C165.45 32.23 164.76 33.05 164.28 34.12C163.98 34.78 163.78 35.52 163.66 36.34ZM42.26 45.86C43.4 45.86 44.38 45.59 45.21 45.05C46.03 44.52 46.69 43.73 47.17 42.69C47.65 41.61 47.89 40.25 47.89 38.61C47.89 36.15 47.38 34.36 46.34 33.22C45.31 32.04 43.95 31.45 42.26 31.45C41.16 31.45 40.18 31.7 39.32 32.21C38.49 32.71 37.84 33.5 37.35 34.58C36.91 35.62 36.68 36.96 36.68 38.61C36.68 41.06 37.2 42.89 38.23 44.1Q38.88 44.84 39.7 45.26Q40.82 45.86 42.26 45.86ZM201.36 40.22L199.55 40.22C197.79 40.22 196.37 40.32 195.26 40.52C194.2 40.69 193.42 40.99 192.94 41.43C192.49 41.86 192.27 42.47 192.27 43.24C192.27 44.18 192.59 44.95 193.25 45.56C193.94 46.16 194.92 46.46 196.19 46.46C197.19 46.46 198.07 46.24 198.83 45.81C199.62 45.34 200.24 44.72 200.69 43.94C201.14 43.14 201.36 42.23 201.36 41.22L201.36 40.22Z" fill="#FF7020" fill-opacity="1.000000" fill-rule="evenodd"/>
	<rect id="free-icon-kitchen-utensil-4790616 1" rx="0.000000" width="65.906471" height="65.592590" transform="translate(237.910156 0.500000)" fill="#FFFFFF" fill-opacity="0"/>
	<g clip-path="url(#clip57_2445)">
		<path id="Rectangle 9" d="M290.12 14.62L295.69 14.44L295.69 34.17L288.97 34.17L290.12 14.62Z" fill="#FFFFFF" fill-opacity="1.000000" fill-rule="nonzero"/>
		<ellipse id="Ellipse 2" cx="272.952148" cy="48.623169" rx="6.637547" ry="8.456202" fill="#FFFFFF" fill-opacity="1.000000"/>
		<path id="Ellipse 3" d="M260.77 21.05C260.77 25.72 257.53 24.92 253.87 24.92C250.2 24.92 247.76 23.69 247.76 22.02C247.76 17.35 250.47 16.73 254.13 16.73C257.8 16.73 260.77 16.38 260.77 21.05Z" fill="#FFFFFF" fill-opacity="1.000000" fill-rule="nonzero"/>
		<path id="Vector" d="M244.46 5.87C244.14 6.06 243.7 6.45 243.48 6.75L243.09 7.3L243.09 14.28L243.09 21.26L243.43 22.13C244.66 25.27 247.3 27.35 250.47 27.67L251.32 27.76L251.39 43.5L251.45 59.24L251.74 59.71C251.91 59.97 252.29 60.34 252.59 60.55C253.07 60.89 253.24 60.93 254.13 60.93C255.01 60.93 255.19 60.89 255.65 60.58C255.92 60.38 256.3 60.01 256.48 59.73L256.81 59.25L256.88 43.51L256.94 27.76L257.79 27.67C261.04 27.35 263.89 25.02 264.89 21.91C265.17 21.01 265.17 20.87 265.17 14.16L265.17 7.32L264.82 6.81C264.25 6 263.65 5.67 262.64 5.61C261.57 5.56 260.8 5.91 260.21 6.75L259.82 7.3L259.75 10.57L259.69 13.85L258.31 13.85L256.94 13.85L256.88 10.58C256.81 7.37 256.81 7.32 256.48 6.85C255.94 6.03 255.27 5.67 254.28 5.61C253.2 5.56 252.43 5.91 251.85 6.75L251.45 7.3L251.39 10.57L251.32 13.85L249.95 13.85L248.58 13.85L248.51 10.58L248.45 7.32L248.1 6.81C247.52 6 246.92 5.67 245.91 5.61C245.19 5.57 244.95 5.63 244.46 5.87ZM259.62 19.76C259.62 20.56 258.98 21.43 258.05 21.92C257.63 22.14 257.27 22.17 254.13 22.17C250.84 22.17 250.64 22.16 250.15 21.88C249.26 21.42 248.64 20.55 248.64 19.76L248.64 19.37L254.13 19.37L259.62 19.37L259.62 19.76Z" fill="#FF7020" fill-opacity="1.000000" fill-rule="nonzero"/>
		<path id="Vector" d="M271.55 5.87C271.22 6.06 270.79 6.45 270.57 6.75L270.18 7.3L270.11 21.81L270.05 36.31L268.95 36.63C266.21 37.41 264.16 39.05 263.01 41.36C262 43.4 261.83 44.24 261.83 47.21C261.83 49.38 261.87 49.9 262.1 50.85C263.38 55.88 266.22 59.32 270.18 60.63C270.95 60.88 271.37 60.93 272.86 60.93C274.35 60.93 274.77 60.88 275.54 60.63C279.5 59.32 282.33 55.88 283.61 50.85C283.85 49.9 283.89 49.38 283.89 47.21C283.89 45.02 283.85 44.53 283.6 43.63C282.62 40.03 280.28 37.64 276.77 36.63L275.67 36.31L275.6 21.82L275.54 7.32L275.18 6.81C274.61 6 274.01 5.67 273 5.61C272.28 5.57 272.04 5.63 271.55 5.87ZM275.43 42.01C276.9 42.5 277.85 43.63 278.22 45.27C278.46 46.4 278.32 49.24 277.95 50.39C277.28 52.53 275.98 54.32 274.58 55.02C273.71 55.47 272.02 55.48 271.16 55.04C269.67 54.27 268.47 52.61 267.74 50.33C267.47 49.47 267.44 49.09 267.44 47.21C267.44 45.11 267.45 45.05 267.81 44.24C268.47 42.84 269.8 41.93 271.55 41.69C271.55 41.69 274.62 41.75 275.43 42.01Z" fill="#FF7020" fill-opacity="1.000000" fill-rule="nonzero"/>
		<path id="Vector" d="M296.75 5.82C295.07 6.69 292.49 9.06 290.89 11.15C286.92 16.42 284.61 23.86 284.07 33.16C283.88 36.57 283.97 37.08 284.87 37.97C285.74 38.84 285.98 38.88 290.94 38.88L295.2 38.88L295.2 48.94L295.2 59L295.51 59.55C295.66 59.86 296.05 60.29 296.37 60.53C296.88 60.89 297.01 60.93 297.94 60.93C298.82 60.93 299.01 60.89 299.47 60.58C299.74 60.38 300.12 60.01 300.3 59.73L300.63 59.25L300.63 33.29L300.63 7.32L300.28 6.81C299.7 5.99 299.1 5.67 298.09 5.61C297.44 5.59 297.11 5.63 296.75 5.82ZM295.2 24.06L295.2 33.29L292.43 33.29L289.68 33.29L289.77 31.95C290 28.37 290.88 24.06 292.02 20.87C292.77 18.76 294.81 14.82 295.14 14.82C295.18 14.82 295.2 18.97 295.2 24.06Z" fill="#FF7020" fill-opacity="1.000000" fill-rule="nonzero"/>
	</g>
</svg>
