<svg width="36.000000" height="36.000000" viewBox="0 0 36 36" fill="none" xmlns="http://www.w3.org/2000/svg" xmlns:xlink="http://www.w3.org/1999/xlink">
	<desc>
			Created with Pixso.
	</desc>
	<defs>
		<clipPath id="clip57_2466">
			<rect id="bi:telegram" rx="0.000000" width="35.000000" height="35.000000" transform="translate(0.500000 0.500000)" fill="white" fill-opacity="0"/>
		</clipPath>
	</defs>
	<rect id="bi:telegram" rx="0.000000" width="35.000000" height="35.000000" transform="translate(0.500000 0.500000)" fill="#FFFFFF" fill-opacity="0"/>
	<g clip-path="url(#clip57_2466)">
		<path id="Vector" d="M36 18C36 22.77 34.1 27.35 30.72 30.72C27.35 34.1 22.77 36 18 36C13.22 36 8.64 34.1 5.27 30.72C1.89 27.35 0 22.77 0 18C0 13.22 1.89 8.64 5.27 5.27C8.64 1.89 13.22 0 18 0C22.77 0 27.35 1.89 30.72 5.27C34.1 8.64 36 13.22 36 18ZM18.64 13.28C16.89 14.01 13.39 15.52 8.14 17.81C7.29 18.14 6.84 18.48 6.8 18.8C6.74 19.35 7.42 19.56 8.36 19.86L8.75 19.98C9.67 20.28 10.91 20.63 11.55 20.64C12.13 20.66 12.78 20.42 13.5 19.92C18.4 16.61 20.93 14.94 21.09 14.91C21.2 14.88 21.36 14.85 21.46 14.94C21.57 15.03 21.56 15.21 21.55 15.26C21.48 15.55 18.79 18.05 17.39 19.35C16.96 19.75 16.65 20.04 16.59 20.1C16.45 20.25 16.31 20.38 16.17 20.52C15.31 21.35 14.67 21.96 16.2 22.97C16.94 23.46 17.52 23.85 18.11 24.25C18.75 24.69 19.39 25.13 20.22 25.67C20.43 25.8 20.63 25.95 20.83 26.09C21.57 26.62 22.24 27.1 23.07 27.02C23.55 26.98 24.05 26.53 24.3 25.18C24.9 21.99 26.07 15.08 26.34 12.24C26.35 12 26.34 11.76 26.31 11.53C26.29 11.34 26.2 11.17 26.05 11.04C25.85 10.9 25.6 10.83 25.35 10.83C24.68 10.84 23.64 11.2 18.64 13.28Z" fill="#FF7020" fill-opacity="1.000000" fill-rule="nonzero"/>
	</g>
</svg>
