<svg width="36.000000" height="36.000000" viewBox="0 0 36 36" fill="none" xmlns="http://www.w3.org/2000/svg" xmlns:xlink="http://www.w3.org/1999/xlink">
	<desc>
			Created with Pixso.
	</desc>
	<defs/>
	<path id="Vector" d="M18 0C8.05 0 0 8.05 0 18C0 27.94 8.05 36 18 36C27.94 36 36 27.94 36 18C36 8.05 27.94 0 18 0ZM24.92 20.3C24.92 20.3 26.51 21.87 26.9 22.6C26.91 22.62 26.92 22.63 26.92 22.64C27.08 22.91 27.12 23.12 27.04 23.27C26.91 23.53 26.46 23.66 26.31 23.67L23.49 23.67C23.3 23.67 22.89 23.62 22.39 23.28C22.01 23.01 21.64 22.58 21.27 22.15C20.73 21.52 20.25 20.97 19.78 20.97C19.72 20.97 19.66 20.98 19.6 21C19.24 21.11 18.78 21.63 18.78 23C18.78 23.42 18.44 23.67 18.2 23.67L16.91 23.67C16.48 23.67 14.19 23.52 12.17 21.38C9.69 18.76 7.46 13.52 7.44 13.47C7.3 13.13 7.59 12.95 7.9 12.95L10.74 12.95C11.12 12.95 11.25 13.18 11.33 13.38C11.43 13.62 11.81 14.57 12.41 15.63C13.4 17.37 14.01 18.07 14.49 18.07C14.59 18.07 14.67 18.05 14.75 18.01C15.39 17.65 15.27 15.39 15.24 14.93C15.24 14.84 15.24 13.92 14.92 13.47C14.68 13.15 14.29 13.03 14.05 12.99C14.15 12.85 14.27 12.74 14.42 12.67C14.86 12.45 15.64 12.42 16.42 12.42L16.85 12.42C17.7 12.43 17.91 12.48 18.22 12.56C18.84 12.71 18.85 13.11 18.8 14.48C18.78 14.86 18.76 15.3 18.76 15.82C18.76 15.93 18.76 16.05 18.76 16.18C18.74 16.88 18.72 17.67 19.21 17.99C19.27 18.03 19.34 18.05 19.42 18.05C19.59 18.05 20.1 18.05 21.5 15.66C21.92 14.9 22.3 14.1 22.61 13.28C22.64 13.23 22.72 13.08 22.82 13.02C22.89 12.98 22.97 12.96 23.05 12.96L26.39 12.96C26.75 12.96 27 13.02 27.05 13.16C27.13 13.38 27.04 14.06 25.51 16.13L24.83 17.03C23.45 18.84 23.45 18.93 24.92 20.3Z" fill="#FF7020" fill-opacity="1.000000" fill-rule="nonzero"/>
</svg>
